<mxfile host="" modified="2020-06-04T20:21:11.076Z" agent="5.0 (Macintosh; Intel Mac OS X 10_15_4) AppleWebKit/537.36 (KHTML, like Gecko) Code/1.45.1 Chrome/78.0.3904.130 Electron/7.2.4 Safari/537.36" etag="0COnbqm8xv9F631f89Y8" version="13.1.3" pages="3">
    <diagram id="C5RBs43oDa-KdzZeNtuy" name="Simple Logic Flowchart">
        <mxGraphModel dx="460" dy="308" grid="1" gridSize="10" guides="1" tooltips="1" connect="1" arrows="1" fold="1" page="1" pageScale="1" pageWidth="827" pageHeight="1169" math="0" shadow="0">
            <root>
                <mxCell id="WIyWlLk6GJQsqaUBKTNV-0"/>
                <mxCell id="WIyWlLk6GJQsqaUBKTNV-1" parent="WIyWlLk6GJQsqaUBKTNV-0"/>
                <mxCell id="twAODvgK2B8Jh5xaezqx-2" value="" style="edgeStyle=orthogonalEdgeStyle;rounded=0;orthogonalLoop=1;jettySize=auto;html=1;" parent="WIyWlLk6GJQsqaUBKTNV-1" source="twAODvgK2B8Jh5xaezqx-0" target="twAODvgK2B8Jh5xaezqx-1" edge="1">
                    <mxGeometry relative="1" as="geometry"/>
                </mxCell>
                <mxCell id="twAODvgK2B8Jh5xaezqx-0" value="&quot;Filter Module&quot;" style="shape=module;align=left;spacingLeft=20;align=center;verticalAlign=top;" parent="WIyWlLk6GJQsqaUBKTNV-1" vertex="1">
                    <mxGeometry x="73.75" y="50" width="440" height="530" as="geometry"/>
                </mxCell>
                <mxCell id="twAODvgK2B8Jh5xaezqx-1" value="&quot;Selection Module&quot;" style="shape=module;align=left;spacingLeft=20;align=center;verticalAlign=top;" parent="WIyWlLk6GJQsqaUBKTNV-1" vertex="1">
                    <mxGeometry x="27.5" y="650" width="532.5" height="630" as="geometry"/>
                </mxCell>
                <mxCell id="iY5GKPad8w9iXShS_eRb-15" value="" style="edgeStyle=orthogonalEdgeStyle;rounded=0;orthogonalLoop=1;jettySize=auto;html=1;" parent="WIyWlLk6GJQsqaUBKTNV-1" source="iY5GKPad8w9iXShS_eRb-0" target="iY5GKPad8w9iXShS_eRb-10" edge="1">
                    <mxGeometry relative="1" as="geometry">
                        <Array as="points">
                            <mxPoint x="273.75" y="220"/>
                            <mxPoint x="273.75" y="220"/>
                        </Array>
                    </mxGeometry>
                </mxCell>
                <mxCell id="iY5GKPad8w9iXShS_eRb-0" value="Minimum Revenue" style="ellipse;whiteSpace=wrap;html=1;" parent="WIyWlLk6GJQsqaUBKTNV-1" vertex="1">
                    <mxGeometry x="232.75" y="105" width="85" height="75" as="geometry"/>
                </mxCell>
                <mxCell id="RA4ZPwY9fW0FjDhE0lDV-7" style="edgeStyle=orthogonalEdgeStyle;rounded=0;orthogonalLoop=1;jettySize=auto;html=1;entryX=0;entryY=0.5;entryDx=0;entryDy=0;" parent="WIyWlLk6GJQsqaUBKTNV-1" source="iY5GKPad8w9iXShS_eRb-1" target="iY5GKPad8w9iXShS_eRb-0" edge="1">
                    <mxGeometry relative="1" as="geometry">
                        <Array as="points">
                            <mxPoint x="193.75" y="143"/>
                            <mxPoint x="193.75" y="143"/>
                        </Array>
                    </mxGeometry>
                </mxCell>
                <mxCell id="iY5GKPad8w9iXShS_eRb-1" value="Construction Cost" style="ellipse;whiteSpace=wrap;html=1;" parent="WIyWlLk6GJQsqaUBKTNV-1" vertex="1">
                    <mxGeometry x="98.75" y="120" width="80" height="50" as="geometry"/>
                </mxCell>
                <mxCell id="iY5GKPad8w9iXShS_eRb-43" style="edgeStyle=orthogonalEdgeStyle;rounded=0;orthogonalLoop=1;jettySize=auto;html=1;entryX=0.008;entryY=0.373;entryDx=0;entryDy=0;entryPerimeter=0;" parent="WIyWlLk6GJQsqaUBKTNV-1" source="iY5GKPad8w9iXShS_eRb-2" target="iY5GKPad8w9iXShS_eRb-0" edge="1">
                    <mxGeometry relative="1" as="geometry">
                        <Array as="points">
                            <mxPoint x="188.75" y="85"/>
                            <mxPoint x="188.75" y="133"/>
                        </Array>
                    </mxGeometry>
                </mxCell>
                <mxCell id="iY5GKPad8w9iXShS_eRb-2" value="Land Cost" style="ellipse;whiteSpace=wrap;html=1;" parent="WIyWlLk6GJQsqaUBKTNV-1" vertex="1">
                    <mxGeometry x="103.75" y="60" width="70" height="50" as="geometry"/>
                </mxCell>
                <mxCell id="iY5GKPad8w9iXShS_eRb-44" style="edgeStyle=orthogonalEdgeStyle;rounded=0;orthogonalLoop=1;jettySize=auto;html=1;entryX=0.015;entryY=0.733;entryDx=0;entryDy=0;entryPerimeter=0;" parent="WIyWlLk6GJQsqaUBKTNV-1" source="iY5GKPad8w9iXShS_eRb-4" target="iY5GKPad8w9iXShS_eRb-0" edge="1">
                    <mxGeometry relative="1" as="geometry"/>
                </mxCell>
                <mxCell id="iY5GKPad8w9iXShS_eRb-4" value="25% profit multiplier" style="ellipse;whiteSpace=wrap;html=1;" parent="WIyWlLk6GJQsqaUBKTNV-1" vertex="1">
                    <mxGeometry x="103.75" y="180" width="70" height="50" as="geometry"/>
                </mxCell>
                <mxCell id="iY5GKPad8w9iXShS_eRb-18" value="" style="edgeStyle=orthogonalEdgeStyle;rounded=0;orthogonalLoop=1;jettySize=auto;html=1;" parent="WIyWlLk6GJQsqaUBKTNV-1" source="iY5GKPad8w9iXShS_eRb-10" edge="1">
                    <mxGeometry relative="1" as="geometry">
                        <mxPoint x="268.75" y="340" as="targetPoint"/>
                    </mxGeometry>
                </mxCell>
                <mxCell id="iY5GKPad8w9iXShS_eRb-10" value="Profit Margin" style="ellipse;whiteSpace=wrap;html=1;" parent="WIyWlLk6GJQsqaUBKTNV-1" vertex="1">
                    <mxGeometry x="208.75" y="240" width="120" height="60" as="geometry"/>
                </mxCell>
                <mxCell id="iY5GKPad8w9iXShS_eRb-16" value="" style="edgeStyle=orthogonalEdgeStyle;rounded=0;orthogonalLoop=1;jettySize=auto;html=1;" parent="WIyWlLk6GJQsqaUBKTNV-1" source="iY5GKPad8w9iXShS_eRb-11" target="iY5GKPad8w9iXShS_eRb-10" edge="1">
                    <mxGeometry relative="1" as="geometry"/>
                </mxCell>
                <mxCell id="iY5GKPad8w9iXShS_eRb-11" value="Expected Revenue" style="ellipse;whiteSpace=wrap;html=1;" parent="WIyWlLk6GJQsqaUBKTNV-1" vertex="1">
                    <mxGeometry x="103.75" y="242.5" width="70" height="55" as="geometry"/>
                </mxCell>
                <mxCell id="iY5GKPad8w9iXShS_eRb-57" value="" style="edgeStyle=orthogonalEdgeStyle;rounded=0;orthogonalLoop=1;jettySize=auto;html=1;" parent="WIyWlLk6GJQsqaUBKTNV-1" source="iY5GKPad8w9iXShS_eRb-19" target="iY5GKPad8w9iXShS_eRb-55" edge="1">
                    <mxGeometry relative="1" as="geometry"/>
                </mxCell>
                <mxCell id="iY5GKPad8w9iXShS_eRb-58" value="" style="edgeStyle=orthogonalEdgeStyle;rounded=0;orthogonalLoop=1;jettySize=auto;html=1;" parent="WIyWlLk6GJQsqaUBKTNV-1" source="iY5GKPad8w9iXShS_eRb-19" target="iY5GKPad8w9iXShS_eRb-23" edge="1">
                    <mxGeometry relative="1" as="geometry"/>
                </mxCell>
                <mxCell id="iY5GKPad8w9iXShS_eRb-19" value="Filter by Profitability" style="whiteSpace=wrap;html=1;aspect=fixed;" parent="WIyWlLk6GJQsqaUBKTNV-1" vertex="1">
                    <mxGeometry x="228.75" y="343" width="80" height="80" as="geometry"/>
                </mxCell>
                <mxCell id="iY5GKPad8w9iXShS_eRb-23" value="Unprofitable Parcels Discarded" style="rounded=1;whiteSpace=wrap;html=1;" parent="WIyWlLk6GJQsqaUBKTNV-1" vertex="1">
                    <mxGeometry x="347.75" y="366" width="120" height="34" as="geometry"/>
                </mxCell>
                <mxCell id="iY5GKPad8w9iXShS_eRb-50" style="edgeStyle=orthogonalEdgeStyle;rounded=0;orthogonalLoop=1;jettySize=auto;html=1;entryX=0;entryY=0.25;entryDx=0;entryDy=0;" parent="WIyWlLk6GJQsqaUBKTNV-1" source="iY5GKPad8w9iXShS_eRb-51" target="iY5GKPad8w9iXShS_eRb-55" edge="1">
                    <mxGeometry relative="1" as="geometry"/>
                </mxCell>
                <mxCell id="iY5GKPad8w9iXShS_eRb-51" value="Vacancy Rate" style="ellipse;whiteSpace=wrap;html=1;" parent="WIyWlLk6GJQsqaUBKTNV-1" vertex="1">
                    <mxGeometry x="123.75" y="440" width="70" height="50" as="geometry"/>
                </mxCell>
                <mxCell id="iY5GKPad8w9iXShS_eRb-52" style="edgeStyle=orthogonalEdgeStyle;rounded=0;orthogonalLoop=1;jettySize=auto;html=1;entryX=-0.012;entryY=0.625;entryDx=0;entryDy=0;entryPerimeter=0;" parent="WIyWlLk6GJQsqaUBKTNV-1" source="iY5GKPad8w9iXShS_eRb-53" target="iY5GKPad8w9iXShS_eRb-55" edge="1">
                    <mxGeometry relative="1" as="geometry"/>
                </mxCell>
                <mxCell id="iY5GKPad8w9iXShS_eRb-53" value="Target Vacancy Rate" style="ellipse;whiteSpace=wrap;html=1;" parent="WIyWlLk6GJQsqaUBKTNV-1" vertex="1">
                    <mxGeometry x="123.75" y="500" width="70" height="50" as="geometry"/>
                </mxCell>
                <mxCell id="iY5GKPad8w9iXShS_eRb-54" value="" style="edgeStyle=orthogonalEdgeStyle;rounded=0;orthogonalLoop=1;jettySize=auto;html=1;" parent="WIyWlLk6GJQsqaUBKTNV-1" source="iY5GKPad8w9iXShS_eRb-55" target="iY5GKPad8w9iXShS_eRb-56" edge="1">
                    <mxGeometry relative="1" as="geometry">
                        <Array as="points">
                            <mxPoint x="323.75" y="496"/>
                            <mxPoint x="323.75" y="496"/>
                        </Array>
                    </mxGeometry>
                </mxCell>
                <mxCell id="iY5GKPad8w9iXShS_eRb-55" value="Filter by Vacancy" style="whiteSpace=wrap;html=1;aspect=fixed;" parent="WIyWlLk6GJQsqaUBKTNV-1" vertex="1">
                    <mxGeometry x="228.75" y="460" width="80" height="80" as="geometry"/>
                </mxCell>
                <mxCell id="iY5GKPad8w9iXShS_eRb-56" value="Parcels Exceeding Target Vacancy Discarded" style="rounded=1;whiteSpace=wrap;html=1;" parent="WIyWlLk6GJQsqaUBKTNV-1" vertex="1">
                    <mxGeometry x="349.75" y="479" width="140" height="34" as="geometry"/>
                </mxCell>
                <mxCell id="iY5GKPad8w9iXShS_eRb-60" value="&lt;font style=&quot;font-size: 16px&quot;&gt;Final Output:&lt;/font&gt;" style="text;html=1;strokeColor=none;fillColor=none;align=center;verticalAlign=middle;whiteSpace=wrap;rounded=0;" parent="WIyWlLk6GJQsqaUBKTNV-1" vertex="1">
                    <mxGeometry x="615" y="1029" width="150" height="44" as="geometry"/>
                </mxCell>
                <mxCell id="iY5GKPad8w9iXShS_eRb-61" value="New and Existing Vacant sqft by Product Type and Location" style="whiteSpace=wrap;html=1;aspect=fixed;" parent="WIyWlLk6GJQsqaUBKTNV-1" vertex="1">
                    <mxGeometry x="620" y="1073" width="140" height="140" as="geometry"/>
                </mxCell>
                <mxCell id="twAODvgK2B8Jh5xaezqx-5" style="edgeStyle=orthogonalEdgeStyle;rounded=0;orthogonalLoop=1;jettySize=auto;html=1;exitX=0.5;exitY=1;exitDx=0;exitDy=0;entryX=0.5;entryY=0;entryDx=0;entryDy=0;" parent="WIyWlLk6GJQsqaUBKTNV-1" source="twAODvgK2B8Jh5xaezqx-3" target="twAODvgK2B8Jh5xaezqx-4" edge="1">
                    <mxGeometry relative="1" as="geometry"/>
                </mxCell>
                <mxCell id="twAODvgK2B8Jh5xaezqx-3" value="Weight by profitability" style="rounded=0;whiteSpace=wrap;html=1;" parent="WIyWlLk6GJQsqaUBKTNV-1" vertex="1">
                    <mxGeometry x="244.5" y="680" width="120" height="60" as="geometry"/>
                </mxCell>
                <mxCell id="twAODvgK2B8Jh5xaezqx-9" style="edgeStyle=orthogonalEdgeStyle;rounded=0;orthogonalLoop=1;jettySize=auto;html=1;entryX=0.5;entryY=0;entryDx=0;entryDy=0;" parent="WIyWlLk6GJQsqaUBKTNV-1" source="twAODvgK2B8Jh5xaezqx-4" target="twAODvgK2B8Jh5xaezqx-8" edge="1">
                    <mxGeometry relative="1" as="geometry"/>
                </mxCell>
                <mxCell id="twAODvgK2B8Jh5xaezqx-20" style="edgeStyle=orthogonalEdgeStyle;rounded=0;orthogonalLoop=1;jettySize=auto;html=1;entryX=0;entryY=0.5;entryDx=0;entryDy=0;" parent="WIyWlLk6GJQsqaUBKTNV-1" source="twAODvgK2B8Jh5xaezqx-4" target="twAODvgK2B8Jh5xaezqx-18" edge="1">
                    <mxGeometry relative="1" as="geometry"/>
                </mxCell>
                <mxCell id="twAODvgK2B8Jh5xaezqx-4" value="Split by product type" style="rounded=0;whiteSpace=wrap;html=1;" parent="WIyWlLk6GJQsqaUBKTNV-1" vertex="1">
                    <mxGeometry x="244.5" y="770" width="120" height="60" as="geometry"/>
                </mxCell>
                <mxCell id="twAODvgK2B8Jh5xaezqx-7" style="edgeStyle=orthogonalEdgeStyle;rounded=0;orthogonalLoop=1;jettySize=auto;html=1;entryX=0;entryY=0.5;entryDx=0;entryDy=0;" parent="WIyWlLk6GJQsqaUBKTNV-1" source="twAODvgK2B8Jh5xaezqx-6" target="twAODvgK2B8Jh5xaezqx-4" edge="1">
                    <mxGeometry relative="1" as="geometry"/>
                </mxCell>
                <mxCell id="twAODvgK2B8Jh5xaezqx-6" value="product type" style="ellipse;whiteSpace=wrap;html=1;" parent="WIyWlLk6GJQsqaUBKTNV-1" vertex="1">
                    <mxGeometry x="125.5" y="770" width="82" height="60" as="geometry"/>
                </mxCell>
                <mxCell id="twAODvgK2B8Jh5xaezqx-13" style="edgeStyle=orthogonalEdgeStyle;rounded=0;orthogonalLoop=1;jettySize=auto;html=1;entryX=0.5;entryY=0;entryDx=0;entryDy=0;" parent="WIyWlLk6GJQsqaUBKTNV-1" source="twAODvgK2B8Jh5xaezqx-8" target="twAODvgK2B8Jh5xaezqx-12" edge="1">
                    <mxGeometry relative="1" as="geometry"/>
                </mxCell>
                <mxCell id="twAODvgK2B8Jh5xaezqx-8" value="Apply Geographic Weighting" style="rounded=0;whiteSpace=wrap;html=1;" parent="WIyWlLk6GJQsqaUBKTNV-1" vertex="1">
                    <mxGeometry x="244.5" y="850" width="120" height="60" as="geometry"/>
                </mxCell>
                <mxCell id="twAODvgK2B8Jh5xaezqx-11" style="edgeStyle=orthogonalEdgeStyle;rounded=0;orthogonalLoop=1;jettySize=auto;html=1;entryX=0;entryY=0.5;entryDx=0;entryDy=0;" parent="WIyWlLk6GJQsqaUBKTNV-1" source="twAODvgK2B8Jh5xaezqx-10" target="twAODvgK2B8Jh5xaezqx-8" edge="1">
                    <mxGeometry relative="1" as="geometry"/>
                </mxCell>
                <mxCell id="twAODvgK2B8Jh5xaezqx-10" value="Geographic weights" style="ellipse;whiteSpace=wrap;html=1;" parent="WIyWlLk6GJQsqaUBKTNV-1" vertex="1">
                    <mxGeometry x="132" y="850" width="80" height="50" as="geometry"/>
                </mxCell>
                <mxCell id="twAODvgK2B8Jh5xaezqx-22" value="" style="edgeStyle=orthogonalEdgeStyle;rounded=0;orthogonalLoop=1;jettySize=auto;html=1;entryX=0;entryY=0.5;entryDx=0;entryDy=0;" parent="WIyWlLk6GJQsqaUBKTNV-1" source="twAODvgK2B8Jh5xaezqx-12" target="twAODvgK2B8Jh5xaezqx-23" edge="1">
                    <mxGeometry relative="1" as="geometry">
                        <mxPoint x="403" y="990" as="targetPoint"/>
                    </mxGeometry>
                </mxCell>
                <mxCell id="twAODvgK2B8Jh5xaezqx-25" value="" style="edgeStyle=orthogonalEdgeStyle;rounded=0;orthogonalLoop=1;jettySize=auto;html=1;" parent="WIyWlLk6GJQsqaUBKTNV-1" source="twAODvgK2B8Jh5xaezqx-12" target="twAODvgK2B8Jh5xaezqx-24" edge="1">
                    <mxGeometry relative="1" as="geometry"/>
                </mxCell>
                <mxCell id="twAODvgK2B8Jh5xaezqx-12" value="Estimate demand on each location" style="rounded=0;whiteSpace=wrap;html=1;" parent="WIyWlLk6GJQsqaUBKTNV-1" vertex="1">
                    <mxGeometry x="248" y="935" width="113" height="60" as="geometry"/>
                </mxCell>
                <mxCell id="twAODvgK2B8Jh5xaezqx-29" style="edgeStyle=orthogonalEdgeStyle;rounded=0;orthogonalLoop=1;jettySize=auto;html=1;entryX=0;entryY=0.5;entryDx=0;entryDy=0;" parent="WIyWlLk6GJQsqaUBKTNV-1" source="twAODvgK2B8Jh5xaezqx-24" target="twAODvgK2B8Jh5xaezqx-28" edge="1">
                    <mxGeometry relative="1" as="geometry"/>
                </mxCell>
                <mxCell id="twAODvgK2B8Jh5xaezqx-33" style="edgeStyle=orthogonalEdgeStyle;rounded=0;orthogonalLoop=1;jettySize=auto;html=1;entryX=0.5;entryY=0;entryDx=0;entryDy=0;" parent="WIyWlLk6GJQsqaUBKTNV-1" source="twAODvgK2B8Jh5xaezqx-24" target="twAODvgK2B8Jh5xaezqx-32" edge="1">
                    <mxGeometry relative="1" as="geometry"/>
                </mxCell>
                <mxCell id="twAODvgK2B8Jh5xaezqx-24" value="Draw weighted sample of parcels" style="rounded=0;whiteSpace=wrap;html=1;" parent="WIyWlLk6GJQsqaUBKTNV-1" vertex="1">
                    <mxGeometry x="244.5" y="1046" width="120" height="60" as="geometry"/>
                </mxCell>
                <mxCell id="MycMR91iky2kyK5fVqU5-12" value="" style="edgeStyle=orthogonalEdgeStyle;rounded=0;orthogonalLoop=1;jettySize=auto;html=1;" parent="WIyWlLk6GJQsqaUBKTNV-1" source="twAODvgK2B8Jh5xaezqx-14" target="twAODvgK2B8Jh5xaezqx-12" edge="1">
                    <mxGeometry relative="1" as="geometry"/>
                </mxCell>
                <mxCell id="twAODvgK2B8Jh5xaezqx-14" value="Demand" style="ellipse;whiteSpace=wrap;html=1;" parent="WIyWlLk6GJQsqaUBKTNV-1" vertex="1">
                    <mxGeometry x="140.5" y="940" width="80" height="50" as="geometry"/>
                </mxCell>
                <mxCell id="twAODvgK2B8Jh5xaezqx-38" style="edgeStyle=orthogonalEdgeStyle;rounded=0;orthogonalLoop=1;jettySize=auto;html=1;entryX=0.5;entryY=0;entryDx=0;entryDy=0;" parent="WIyWlLk6GJQsqaUBKTNV-1" source="MycMR91iky2kyK5fVqU5-0" target="twAODvgK2B8Jh5xaezqx-14" edge="1">
                    <mxGeometry relative="1" as="geometry"/>
                </mxCell>
                <mxCell id="MycMR91iky2kyK5fVqU5-0" value="Area employment forecasts&amp;nbsp;" style="ellipse;whiteSpace=wrap;html=1;" parent="WIyWlLk6GJQsqaUBKTNV-1" vertex="1">
                    <mxGeometry x="52" y="885" width="80" height="50" as="geometry"/>
                </mxCell>
                <mxCell id="twAODvgK2B8Jh5xaezqx-39" style="edgeStyle=orthogonalEdgeStyle;rounded=0;orthogonalLoop=1;jettySize=auto;html=1;entryX=0;entryY=0.5;entryDx=0;entryDy=0;exitX=1;exitY=0.5;exitDx=0;exitDy=0;" parent="WIyWlLk6GJQsqaUBKTNV-1" source="MycMR91iky2kyK5fVqU5-1" target="twAODvgK2B8Jh5xaezqx-14" edge="1">
                    <mxGeometry relative="1" as="geometry">
                        <Array as="points">
                            <mxPoint x="121" y="965"/>
                        </Array>
                    </mxGeometry>
                </mxCell>
                <mxCell id="MycMR91iky2kyK5fVqU5-1" value="Area population/&lt;br&gt;demographic forecasts" style="ellipse;whiteSpace=wrap;html=1;" parent="WIyWlLk6GJQsqaUBKTNV-1" vertex="1">
                    <mxGeometry x="41.5" y="940" width="79" height="56" as="geometry"/>
                </mxCell>
                <mxCell id="twAODvgK2B8Jh5xaezqx-18" value="groups of product types" style="rounded=1;whiteSpace=wrap;html=1;" parent="WIyWlLk6GJQsqaUBKTNV-1" vertex="1">
                    <mxGeometry x="396" y="770" width="120" height="60" as="geometry"/>
                </mxCell>
                <mxCell id="twAODvgK2B8Jh5xaezqx-23" value="Demand for each product type by MGRA" style="rounded=1;whiteSpace=wrap;html=1;" parent="WIyWlLk6GJQsqaUBKTNV-1" vertex="1">
                    <mxGeometry x="395" y="935" width="106" height="60" as="geometry"/>
                </mxCell>
                <mxCell id="twAODvgK2B8Jh5xaezqx-27" style="edgeStyle=orthogonalEdgeStyle;rounded=0;orthogonalLoop=1;jettySize=auto;html=1;entryX=0;entryY=0.5;entryDx=0;entryDy=0;" parent="WIyWlLk6GJQsqaUBKTNV-1" source="twAODvgK2B8Jh5xaezqx-26" target="twAODvgK2B8Jh5xaezqx-24" edge="1">
                    <mxGeometry relative="1" as="geometry"/>
                </mxCell>
                <mxCell id="twAODvgK2B8Jh5xaezqx-26" value="Number of available developers" style="ellipse;whiteSpace=wrap;html=1;" parent="WIyWlLk6GJQsqaUBKTNV-1" vertex="1">
                    <mxGeometry x="125.5" y="1020" width="75" height="60" as="geometry"/>
                </mxCell>
                <mxCell id="twAODvgK2B8Jh5xaezqx-28" value="Parcels that will be developed" style="rounded=1;whiteSpace=wrap;html=1;" parent="WIyWlLk6GJQsqaUBKTNV-1" vertex="1">
                    <mxGeometry x="399.75" y="1046" width="90" height="60" as="geometry"/>
                </mxCell>
                <mxCell id="twAODvgK2B8Jh5xaezqx-31" style="edgeStyle=orthogonalEdgeStyle;rounded=0;orthogonalLoop=1;jettySize=auto;html=1;entryX=0;entryY=0.5;entryDx=0;entryDy=0;" parent="WIyWlLk6GJQsqaUBKTNV-1" source="twAODvgK2B8Jh5xaezqx-30" target="twAODvgK2B8Jh5xaezqx-24" edge="1">
                    <mxGeometry relative="1" as="geometry"/>
                </mxCell>
                <mxCell id="twAODvgK2B8Jh5xaezqx-30" value="Sampling strategy" style="ellipse;whiteSpace=wrap;html=1;" parent="WIyWlLk6GJQsqaUBKTNV-1" vertex="1">
                    <mxGeometry x="127.5" y="1085" width="74" height="50" as="geometry"/>
                </mxCell>
                <mxCell id="twAODvgK2B8Jh5xaezqx-35" value="" style="edgeStyle=orthogonalEdgeStyle;rounded=0;orthogonalLoop=1;jettySize=auto;html=1;entryX=0;entryY=0.5;entryDx=0;entryDy=0;" parent="WIyWlLk6GJQsqaUBKTNV-1" source="twAODvgK2B8Jh5xaezqx-32" target="twAODvgK2B8Jh5xaezqx-36" edge="1">
                    <mxGeometry relative="1" as="geometry">
                        <mxPoint x="440" y="1240" as="targetPoint"/>
                    </mxGeometry>
                </mxCell>
                <mxCell id="twAODvgK2B8Jh5xaezqx-32" value="Total Square Footage by Product Type" style="rounded=0;whiteSpace=wrap;html=1;" parent="WIyWlLk6GJQsqaUBKTNV-1" vertex="1">
                    <mxGeometry x="246.5" y="1156" width="116" height="60" as="geometry"/>
                </mxCell>
                <mxCell id="twAODvgK2B8Jh5xaezqx-37" style="edgeStyle=orthogonalEdgeStyle;rounded=0;orthogonalLoop=1;jettySize=auto;html=1;entryX=0;entryY=0.5;entryDx=0;entryDy=0;" parent="WIyWlLk6GJQsqaUBKTNV-1" source="twAODvgK2B8Jh5xaezqx-36" target="iY5GKPad8w9iXShS_eRb-61" edge="1">
                    <mxGeometry relative="1" as="geometry">
                        <Array as="points">
                            <mxPoint x="590" y="1186"/>
                            <mxPoint x="590" y="1143"/>
                        </Array>
                    </mxGeometry>
                </mxCell>
                <mxCell id="twAODvgK2B8Jh5xaezqx-36" value="Final sqft available by product type" style="rounded=1;whiteSpace=wrap;html=1;" parent="WIyWlLk6GJQsqaUBKTNV-1" vertex="1">
                    <mxGeometry x="388" y="1156" width="120" height="60" as="geometry"/>
                </mxCell>
                <mxCell id="RA4ZPwY9fW0FjDhE0lDV-2" value="" style="edgeStyle=orthogonalEdgeStyle;rounded=0;orthogonalLoop=1;jettySize=auto;html=1;" parent="WIyWlLk6GJQsqaUBKTNV-1" source="RA4ZPwY9fW0FjDhE0lDV-0" target="twAODvgK2B8Jh5xaezqx-32" edge="1">
                    <mxGeometry relative="1" as="geometry"/>
                </mxCell>
                <mxCell id="RA4ZPwY9fW0FjDhE0lDV-0" value="FAR by Type" style="ellipse;whiteSpace=wrap;html=1;" parent="WIyWlLk6GJQsqaUBKTNV-1" vertex="1">
                    <mxGeometry x="130.5" y="1146" width="78" height="50" as="geometry"/>
                </mxCell>
                <mxCell id="RA4ZPwY9fW0FjDhE0lDV-6" style="edgeStyle=orthogonalEdgeStyle;rounded=0;orthogonalLoop=1;jettySize=auto;html=1;entryX=0;entryY=0.75;entryDx=0;entryDy=0;" parent="WIyWlLk6GJQsqaUBKTNV-1" source="RA4ZPwY9fW0FjDhE0lDV-1" target="twAODvgK2B8Jh5xaezqx-32" edge="1">
                    <mxGeometry relative="1" as="geometry"/>
                </mxCell>
                <mxCell id="RA4ZPwY9fW0FjDhE0lDV-1" value="DUA by MGRA" style="ellipse;whiteSpace=wrap;html=1;" parent="WIyWlLk6GJQsqaUBKTNV-1" vertex="1">
                    <mxGeometry x="132" y="1206" width="75" height="60" as="geometry"/>
                </mxCell>
                <mxCell id="JjNHPBcNgkSQtxMAyPGT-1" style="edgeStyle=orthogonalEdgeStyle;rounded=0;orthogonalLoop=1;jettySize=auto;html=1;entryX=0;entryY=0.5;entryDx=0;entryDy=0;" parent="WIyWlLk6GJQsqaUBKTNV-1" source="JjNHPBcNgkSQtxMAyPGT-0" target="iY5GKPad8w9iXShS_eRb-19" edge="1">
                    <mxGeometry relative="1" as="geometry"/>
                </mxCell>
                <mxCell id="JjNHPBcNgkSQtxMAyPGT-0" value="Development Costs" style="ellipse;whiteSpace=wrap;html=1;" parent="WIyWlLk6GJQsqaUBKTNV-1" vertex="1">
                    <mxGeometry x="101" y="340" width="89" height="40" as="geometry"/>
                </mxCell>
                <mxCell id="JjNHPBcNgkSQtxMAyPGT-3" style="edgeStyle=orthogonalEdgeStyle;rounded=0;orthogonalLoop=1;jettySize=auto;html=1;entryX=0;entryY=0.5;entryDx=0;entryDy=0;" parent="WIyWlLk6GJQsqaUBKTNV-1" source="JjNHPBcNgkSQtxMAyPGT-2" target="iY5GKPad8w9iXShS_eRb-19" edge="1">
                    <mxGeometry relative="1" as="geometry"/>
                </mxCell>
                <mxCell id="JjNHPBcNgkSQtxMAyPGT-2" value="Redevelopment Costs" style="ellipse;whiteSpace=wrap;html=1;" parent="WIyWlLk6GJQsqaUBKTNV-1" vertex="1">
                    <mxGeometry x="91" y="390" width="99" height="43" as="geometry"/>
                </mxCell>
            </root>
        </mxGraphModel>
    </diagram>
    <diagram id="Sa_JnGDrjjfhQsYXm28d" name="Filter Module">
        <mxGraphModel dx="460" dy="308" grid="1" gridSize="10" guides="1" tooltips="1" connect="1" arrows="1" fold="1" page="1" pageScale="1" pageWidth="850" pageHeight="1100" math="0" shadow="0">
            <root>
                <mxCell id="bbSwPrq0KOHHlBY3MoKz-0"/>
                <mxCell id="bbSwPrq0KOHHlBY3MoKz-1" parent="bbSwPrq0KOHHlBY3MoKz-0"/>
                <mxCell id="3LuUVPWFCTXWhSv_y9QK-0" style="edgeStyle=orthogonalEdgeStyle;rounded=0;orthogonalLoop=1;jettySize=auto;html=1;entryX=0;entryY=0.5;entryDx=0;entryDy=0;" parent="bbSwPrq0KOHHlBY3MoKz-1" source="otBvZUjH6n6WHMpAmmLK-0" target="SYaE6ZIxGnQgN78vqDkh-5" edge="1">
                    <mxGeometry relative="1" as="geometry"/>
                </mxCell>
                <mxCell id="otBvZUjH6n6WHMpAmmLK-0" value="Start" style="ellipse;whiteSpace=wrap;html=1;fillColor=#B9E0A5;" parent="bbSwPrq0KOHHlBY3MoKz-1" vertex="1">
                    <mxGeometry x="40" y="40" width="90" height="50" as="geometry"/>
                </mxCell>
                <mxCell id="3LuUVPWFCTXWhSv_y9QK-3" style="edgeStyle=orthogonalEdgeStyle;rounded=0;orthogonalLoop=1;jettySize=auto;html=1;entryX=0.5;entryY=0;entryDx=0;entryDy=0;" parent="bbSwPrq0KOHHlBY3MoKz-1" source="SYaE6ZIxGnQgN78vqDkh-0" target="SYaE6ZIxGnQgN78vqDkh-5" edge="1">
                    <mxGeometry relative="1" as="geometry"/>
                </mxCell>
                <mxCell id="SYaE6ZIxGnQgN78vqDkh-0" value="input &lt;br&gt;land_cost" style="shape=parallelogram;perimeter=parallelogramPerimeter;whiteSpace=wrap;html=1;fillColor=#C3ABD0;" parent="bbSwPrq0KOHHlBY3MoKz-1" vertex="1">
                    <mxGeometry x="214.5" y="42.5" width="120" height="45" as="geometry"/>
                </mxCell>
                <mxCell id="3LuUVPWFCTXWhSv_y9QK-4" style="edgeStyle=orthogonalEdgeStyle;rounded=0;orthogonalLoop=1;jettySize=auto;html=1;entryX=0.5;entryY=0;entryDx=0;entryDy=0;" parent="bbSwPrq0KOHHlBY3MoKz-1" source="SYaE6ZIxGnQgN78vqDkh-1" target="SYaE6ZIxGnQgN78vqDkh-5" edge="1">
                    <mxGeometry relative="1" as="geometry"/>
                </mxCell>
                <mxCell id="SYaE6ZIxGnQgN78vqDkh-1" value="input &lt;br&gt;construction_cost" style="shape=parallelogram;perimeter=parallelogramPerimeter;whiteSpace=wrap;html=1;fillColor=#C3ABD0;" parent="bbSwPrq0KOHHlBY3MoKz-1" vertex="1">
                    <mxGeometry x="344.5" y="42.5" width="140" height="45" as="geometry"/>
                </mxCell>
                <mxCell id="Mxqm3GS09kmNUE_sotiO-22" value="" style="edgeStyle=orthogonalEdgeStyle;rounded=0;orthogonalLoop=1;jettySize=auto;html=1;" parent="bbSwPrq0KOHHlBY3MoKz-1" source="SYaE6ZIxGnQgN78vqDkh-5" target="3YWTFBetqbB1HRY2uv2K-5" edge="1">
                    <mxGeometry relative="1" as="geometry">
                        <Array as="points">
                            <mxPoint x="374.5" y="220"/>
                            <mxPoint x="374.5" y="220"/>
                        </Array>
                    </mxGeometry>
                </mxCell>
                <mxCell id="SYaE6ZIxGnQgN78vqDkh-5" value="minimum_revenue = land_cost + construction_cost + redevelopment_cost + ((land_cost + construction_cost + redevelopment_cost) * 0.25)" style="rounded=0;whiteSpace=wrap;html=1;fillColor=#F19C99;" parent="bbSwPrq0KOHHlBY3MoKz-1" vertex="1">
                    <mxGeometry x="229.5" y="170" width="315" height="60" as="geometry"/>
                </mxCell>
                <mxCell id="l86nXYWPSzcgu4t_Sasz-4" value="" style="edgeStyle=orthogonalEdgeStyle;rounded=0;orthogonalLoop=1;jettySize=auto;html=1;" parent="bbSwPrq0KOHHlBY3MoKz-1" source="3YWTFBetqbB1HRY2uv2K-5" edge="1">
                    <mxGeometry relative="1" as="geometry">
                        <mxPoint x="374.5" y="314" as="targetPoint"/>
                    </mxGeometry>
                </mxCell>
                <mxCell id="3YWTFBetqbB1HRY2uv2K-5" value="input &lt;br&gt;expected_revenue" style="shape=parallelogram;perimeter=parallelogramPerimeter;whiteSpace=wrap;html=1;fillColor=#C3ABD0;" parent="bbSwPrq0KOHHlBY3MoKz-1" vertex="1">
                    <mxGeometry x="304.5" y="250" width="140" height="45" as="geometry"/>
                </mxCell>
                <mxCell id="B_taRWXyXvD_um9djRyr-5" value="" style="edgeStyle=orthogonalEdgeStyle;rounded=0;orthogonalLoop=1;jettySize=auto;html=1;" parent="bbSwPrq0KOHHlBY3MoKz-1" source="3YWTFBetqbB1HRY2uv2K-9" edge="1">
                    <mxGeometry relative="1" as="geometry">
                        <mxPoint x="514.5" y="358.5" as="targetPoint"/>
                    </mxGeometry>
                </mxCell>
                <mxCell id="DM-gAEBCoD3BVR-N_PxK-2" value="" style="edgeStyle=orthogonalEdgeStyle;rounded=0;orthogonalLoop=1;jettySize=auto;html=1;" parent="bbSwPrq0KOHHlBY3MoKz-1" source="3YWTFBetqbB1HRY2uv2K-9" edge="1">
                    <mxGeometry relative="1" as="geometry">
                        <mxPoint x="232.5" y="358.5" as="targetPoint"/>
                    </mxGeometry>
                </mxCell>
                <mxCell id="3YWTFBetqbB1HRY2uv2K-9" value="filter_by_profitability&lt;br&gt;assert (expected revenue &amp;gt;= minimum_revenue)" style="rhombus;whiteSpace=wrap;html=1;fillColor=#A9C4EB;" parent="bbSwPrq0KOHHlBY3MoKz-1" vertex="1">
                    <mxGeometry x="274.5" y="317" width="200" height="83" as="geometry"/>
                </mxCell>
                <mxCell id="B_taRWXyXvD_um9djRyr-2" value="True" style="text;html=1;strokeColor=none;fillColor=none;align=center;verticalAlign=middle;whiteSpace=wrap;rounded=0;" parent="bbSwPrq0KOHHlBY3MoKz-1" vertex="1">
                    <mxGeometry x="469.5" y="330" width="40" height="20" as="geometry"/>
                </mxCell>
                <mxCell id="B_taRWXyXvD_um9djRyr-3" value="False" style="text;html=1;strokeColor=none;fillColor=none;align=center;verticalAlign=middle;whiteSpace=wrap;rounded=0;" parent="bbSwPrq0KOHHlBY3MoKz-1" vertex="1">
                    <mxGeometry x="235.5" y="330" width="40" height="20" as="geometry"/>
                </mxCell>
                <mxCell id="a5Demc56MQIEiZyE79w2-5" style="edgeStyle=orthogonalEdgeStyle;rounded=0;orthogonalLoop=1;jettySize=auto;html=1;entryX=0.5;entryY=0;entryDx=0;entryDy=0;" parent="bbSwPrq0KOHHlBY3MoKz-1" source="DM-gAEBCoD3BVR-N_PxK-0" target="M_DUQU9VegCtGLYWJdcV-7" edge="1">
                    <mxGeometry relative="1" as="geometry"/>
                </mxCell>
                <mxCell id="DM-gAEBCoD3BVR-N_PxK-0" value="Keep MGRA in Filtered List" style="rounded=1;whiteSpace=wrap;html=1;fillColor=#B9E0A5;" parent="bbSwPrq0KOHHlBY3MoKz-1" vertex="1">
                    <mxGeometry x="514.5" y="338.5" width="100" height="41.5" as="geometry"/>
                </mxCell>
                <mxCell id="DM-gAEBCoD3BVR-N_PxK-3" value="discard MGRA" style="rounded=1;whiteSpace=wrap;html=1;fillColor=#fff2cc;strokeColor=#d6b656;" parent="bbSwPrq0KOHHlBY3MoKz-1" vertex="1">
                    <mxGeometry x="132.5" y="338.5" width="100" height="40" as="geometry"/>
                </mxCell>
                <mxCell id="3LuUVPWFCTXWhSv_y9QK-6" style="edgeStyle=orthogonalEdgeStyle;rounded=0;orthogonalLoop=1;jettySize=auto;html=1;exitX=0;exitY=0.25;exitDx=0;exitDy=0;entryX=1;entryY=0.5;entryDx=0;entryDy=0;" parent="bbSwPrq0KOHHlBY3MoKz-1" source="a5Demc56MQIEiZyE79w2-0" target="M_DUQU9VegCtGLYWJdcV-7" edge="1">
                    <mxGeometry relative="1" as="geometry"/>
                </mxCell>
                <mxCell id="a5Demc56MQIEiZyE79w2-0" value="input &lt;br&gt;housing_units" style="shape=parallelogram;perimeter=parallelogramPerimeter;whiteSpace=wrap;html=1;fillColor=#C3ABD0;" parent="bbSwPrq0KOHHlBY3MoKz-1" vertex="1">
                    <mxGeometry x="704.5" y="505" width="140" height="45" as="geometry"/>
                </mxCell>
                <mxCell id="3LuUVPWFCTXWhSv_y9QK-7" style="edgeStyle=orthogonalEdgeStyle;rounded=0;orthogonalLoop=1;jettySize=auto;html=1;exitX=0;exitY=0.5;exitDx=0;exitDy=0;entryX=1;entryY=0.5;entryDx=0;entryDy=0;" parent="bbSwPrq0KOHHlBY3MoKz-1" source="a5Demc56MQIEiZyE79w2-6" target="M_DUQU9VegCtGLYWJdcV-7" edge="1">
                    <mxGeometry relative="1" as="geometry"/>
                </mxCell>
                <mxCell id="a5Demc56MQIEiZyE79w2-6" value="input &lt;br&gt;households" style="shape=parallelogram;perimeter=parallelogramPerimeter;whiteSpace=wrap;html=1;fillColor=#C3ABD0;" parent="bbSwPrq0KOHHlBY3MoKz-1" vertex="1">
                    <mxGeometry x="704.5" y="565" width="140" height="45" as="geometry"/>
                </mxCell>
                <mxCell id="a5Demc56MQIEiZyE79w2-13" value="" style="edgeStyle=orthogonalEdgeStyle;rounded=0;orthogonalLoop=1;jettySize=auto;html=1;" parent="bbSwPrq0KOHHlBY3MoKz-1" source="a5Demc56MQIEiZyE79w2-10" edge="1">
                    <mxGeometry relative="1" as="geometry">
                        <mxPoint x="280.5" y="701.5" as="targetPoint"/>
                    </mxGeometry>
                </mxCell>
                <mxCell id="a5Demc56MQIEiZyE79w2-16" value="" style="edgeStyle=orthogonalEdgeStyle;rounded=0;orthogonalLoop=1;jettySize=auto;html=1;" parent="bbSwPrq0KOHHlBY3MoKz-1" source="a5Demc56MQIEiZyE79w2-10" target="a5Demc56MQIEiZyE79w2-14" edge="1">
                    <mxGeometry relative="1" as="geometry"/>
                </mxCell>
                <mxCell id="a5Demc56MQIEiZyE79w2-10" value="filter_by_vacancy&lt;br&gt;assert (vacancy_rate &amp;lt;= target_vacancy_rate)" style="rhombus;whiteSpace=wrap;html=1;fillColor=#A9C4EB;" parent="bbSwPrq0KOHHlBY3MoKz-1" vertex="1">
                    <mxGeometry x="327.5" y="660" width="200" height="83" as="geometry"/>
                </mxCell>
                <mxCell id="Ix__y8CqoGxyx4m2dmBC-1" value="" style="edgeStyle=orthogonalEdgeStyle;rounded=0;orthogonalLoop=1;jettySize=auto;html=1;" parent="bbSwPrq0KOHHlBY3MoKz-1" source="a5Demc56MQIEiZyE79w2-14" edge="1">
                    <mxGeometry relative="1" as="geometry">
                        <mxPoint x="622.5" y="750" as="targetPoint"/>
                    </mxGeometry>
                </mxCell>
                <mxCell id="a5Demc56MQIEiZyE79w2-14" value="Keep MGRA in Filtered List" style="rounded=1;whiteSpace=wrap;html=1;fillColor=#B9E0A5;" parent="bbSwPrq0KOHHlBY3MoKz-1" vertex="1">
                    <mxGeometry x="572.5" y="681.5" width="100" height="40" as="geometry"/>
                </mxCell>
                <mxCell id="a5Demc56MQIEiZyE79w2-15" value="discard MGRA" style="rounded=1;whiteSpace=wrap;html=1;fillColor=#fff2cc;strokeColor=#d6b656;" parent="bbSwPrq0KOHHlBY3MoKz-1" vertex="1">
                    <mxGeometry x="182.5" y="681.5" width="100" height="40" as="geometry"/>
                </mxCell>
                <mxCell id="a5Demc56MQIEiZyE79w2-17" value="False" style="text;html=1;strokeColor=none;fillColor=none;align=center;verticalAlign=middle;whiteSpace=wrap;rounded=0;" parent="bbSwPrq0KOHHlBY3MoKz-1" vertex="1">
                    <mxGeometry x="287.5" y="674" width="40" height="20" as="geometry"/>
                </mxCell>
                <mxCell id="a5Demc56MQIEiZyE79w2-18" value="True" style="text;html=1;strokeColor=none;fillColor=none;align=center;verticalAlign=middle;whiteSpace=wrap;rounded=0;" parent="bbSwPrq0KOHHlBY3MoKz-1" vertex="1">
                    <mxGeometry x="522.5" y="674" width="40" height="20" as="geometry"/>
                </mxCell>
                <mxCell id="3LuUVPWFCTXWhSv_y9QK-5" style="edgeStyle=orthogonalEdgeStyle;rounded=0;orthogonalLoop=1;jettySize=auto;html=1;" parent="bbSwPrq0KOHHlBY3MoKz-1" source="Mxqm3GS09kmNUE_sotiO-3" target="SYaE6ZIxGnQgN78vqDkh-5" edge="1">
                    <mxGeometry relative="1" as="geometry"/>
                </mxCell>
                <mxCell id="Mxqm3GS09kmNUE_sotiO-3" value="input &lt;br&gt;redevelopment_cost" style="shape=parallelogram;perimeter=parallelogramPerimeter;whiteSpace=wrap;html=1;fillColor=#C3ABD0;" parent="bbSwPrq0KOHHlBY3MoKz-1" vertex="1">
                    <mxGeometry x="494.5" y="40" width="135" height="50" as="geometry"/>
                </mxCell>
                <mxCell id="M_DUQU9VegCtGLYWJdcV-2" value="Eligible MGRAs for selection" style="rounded=1;whiteSpace=wrap;html=1;fillColor=#B9E0A5;" parent="bbSwPrq0KOHHlBY3MoKz-1" vertex="1">
                    <mxGeometry x="557.5" y="750" width="130" height="100" as="geometry"/>
                </mxCell>
                <mxCell id="3LuUVPWFCTXWhSv_y9QK-8" style="edgeStyle=orthogonalEdgeStyle;rounded=0;orthogonalLoop=1;jettySize=auto;html=1;entryX=0.5;entryY=0;entryDx=0;entryDy=0;" parent="bbSwPrq0KOHHlBY3MoKz-1" source="M_DUQU9VegCtGLYWJdcV-3" target="a5Demc56MQIEiZyE79w2-10" edge="1">
                    <mxGeometry relative="1" as="geometry"/>
                </mxCell>
                <mxCell id="M_DUQU9VegCtGLYWJdcV-3" value="input &lt;br&gt;target_vacancy_rate" style="shape=parallelogram;perimeter=parallelogramPerimeter;whiteSpace=wrap;html=1;fillColor=#C3ABD0;" parent="bbSwPrq0KOHHlBY3MoKz-1" vertex="1">
                    <mxGeometry x="147.5" y="560" width="140" height="45" as="geometry"/>
                </mxCell>
                <mxCell id="3LuUVPWFCTXWhSv_y9QK-9" style="edgeStyle=orthogonalEdgeStyle;rounded=0;orthogonalLoop=1;jettySize=auto;html=1;entryX=0.5;entryY=0;entryDx=0;entryDy=0;" parent="bbSwPrq0KOHHlBY3MoKz-1" source="M_DUQU9VegCtGLYWJdcV-7" target="a5Demc56MQIEiZyE79w2-10" edge="1">
                    <mxGeometry relative="1" as="geometry"/>
                </mxCell>
                <mxCell id="M_DUQU9VegCtGLYWJdcV-7" value="vacancy_rate = (housing_units - households) / housing_units&amp;nbsp;" style="rounded=0;whiteSpace=wrap;html=1;fillColor=#F19C99;" parent="bbSwPrq0KOHHlBY3MoKz-1" vertex="1">
                    <mxGeometry x="467" y="525" width="195" height="60" as="geometry"/>
                </mxCell>
            </root>
        </mxGraphModel>
    </diagram>
    <diagram id="Vna2IiVejOHeDewIdl48" name="Selection Module">
        <mxGraphModel dx="460" dy="308" grid="1" gridSize="10" guides="1" tooltips="1" connect="1" arrows="1" fold="1" page="1" pageScale="1" pageWidth="850" pageHeight="1100" math="0" shadow="0">
            <root>
                <mxCell id="7sO4SzU4SV3yVjTgbaDL-0"/>
                <mxCell id="7sO4SzU4SV3yVjTgbaDL-1" parent="7sO4SzU4SV3yVjTgbaDL-0"/>
                <mxCell id="pPKXz-xtSlKnffFKawd1-1" value="" style="edgeStyle=orthogonalEdgeStyle;rounded=0;orthogonalLoop=1;jettySize=auto;html=1;entryX=0;entryY=0.5;entryDx=0;entryDy=0;" parent="7sO4SzU4SV3yVjTgbaDL-1" source="pPKXz-xtSlKnffFKawd1-0" target="s3QIYxIlh7an31TXtqck-1" edge="1">
                    <mxGeometry relative="1" as="geometry">
                        <mxPoint x="171" y="218.41" as="targetPoint"/>
                    </mxGeometry>
                </mxCell>
                <mxCell id="pPKXz-xtSlKnffFKawd1-0" value="Start" style="ellipse;whiteSpace=wrap;html=1;fillColor=#B9E0A5;" parent="7sO4SzU4SV3yVjTgbaDL-1" vertex="1">
                    <mxGeometry x="39" y="395" width="90" height="50" as="geometry"/>
                </mxCell>
                <mxCell id="wMccDNdmw_xQJ91THbsV-13" style="edgeStyle=orthogonalEdgeStyle;rounded=0;orthogonalLoop=1;jettySize=auto;html=1;" parent="7sO4SzU4SV3yVjTgbaDL-1" source="dF4oNIGG0-xv-TZiWGSx-0" target="s3QIYxIlh7an31TXtqck-1" edge="1">
                    <mxGeometry relative="1" as="geometry">
                        <Array as="points">
                            <mxPoint x="231" y="340"/>
                            <mxPoint x="300" y="340"/>
                        </Array>
                    </mxGeometry>
                </mxCell>
                <mxCell id="dF4oNIGG0-xv-TZiWGSx-0" value="input&lt;br&gt;&amp;nbsp;demand by product &lt;br&gt;type by year" style="shape=parallelogram;perimeter=parallelogramPerimeter;whiteSpace=wrap;html=1;fillColor=#C3ABD0;" parent="7sO4SzU4SV3yVjTgbaDL-1" vertex="1">
                    <mxGeometry x="163" y="265" width="136" height="61.87" as="geometry"/>
                </mxCell>
                <mxCell id="wMccDNdmw_xQJ91THbsV-12" style="edgeStyle=orthogonalEdgeStyle;rounded=0;orthogonalLoop=1;jettySize=auto;html=1;entryX=0.5;entryY=0;entryDx=0;entryDy=0;" parent="7sO4SzU4SV3yVjTgbaDL-1" source="dF4oNIGG0-xv-TZiWGSx-3" target="s3QIYxIlh7an31TXtqck-1" edge="1">
                    <mxGeometry relative="1" as="geometry">
                        <Array as="points">
                            <mxPoint x="401" y="340"/>
                            <mxPoint x="300" y="340"/>
                        </Array>
                    </mxGeometry>
                </mxCell>
                <mxCell id="dF4oNIGG0-xv-TZiWGSx-3" value="input&lt;br&gt;weight by profitability" style="shape=parallelogram;perimeter=parallelogramPerimeter;whiteSpace=wrap;html=1;fillColor=#C3ABD0;" parent="7sO4SzU4SV3yVjTgbaDL-1" vertex="1">
                    <mxGeometry x="323" y="270.47" width="156" height="50.94" as="geometry"/>
                </mxCell>
                <mxCell id="wMccDNdmw_xQJ91THbsV-11" style="edgeStyle=orthogonalEdgeStyle;rounded=0;orthogonalLoop=1;jettySize=auto;html=1;entryX=0.5;entryY=0;entryDx=0;entryDy=0;" parent="7sO4SzU4SV3yVjTgbaDL-1" source="dF4oNIGG0-xv-TZiWGSx-4" target="s3QIYxIlh7an31TXtqck-1" edge="1">
                    <mxGeometry relative="1" as="geometry">
                        <Array as="points">
                            <mxPoint x="570" y="340"/>
                            <mxPoint x="300" y="340"/>
                        </Array>
                    </mxGeometry>
                </mxCell>
                <mxCell id="dF4oNIGG0-xv-TZiWGSx-4" value="input&lt;br&gt;weight by vacancy" style="shape=parallelogram;perimeter=parallelogramPerimeter;whiteSpace=wrap;html=1;fillColor=#C3ABD0;" parent="7sO4SzU4SV3yVjTgbaDL-1" vertex="1">
                    <mxGeometry x="499" y="269.06" width="142" height="53.75" as="geometry"/>
                </mxCell>
                <mxCell id="rrR5HpfxAH9Y3n2JgLJG-7" style="edgeStyle=orthogonalEdgeStyle;rounded=0;orthogonalLoop=1;jettySize=auto;html=1;entryX=0.5;entryY=0;entryDx=0;entryDy=0;" parent="7sO4SzU4SV3yVjTgbaDL-1" source="dF4oNIGG0-xv-TZiWGSx-9" target="s3QIYxIlh7an31TXtqck-1" edge="1">
                    <mxGeometry relative="1" as="geometry">
                        <Array as="points">
                            <mxPoint x="715" y="340"/>
                            <mxPoint x="300" y="340"/>
                        </Array>
                    </mxGeometry>
                </mxCell>
                <mxCell id="dF4oNIGG0-xv-TZiWGSx-9" value="input&lt;br&gt;weight by proximity to existing development" style="shape=parallelogram;perimeter=parallelogramPerimeter;whiteSpace=wrap;html=1;fillColor=#C3ABD0;" parent="7sO4SzU4SV3yVjTgbaDL-1" vertex="1">
                    <mxGeometry x="661" y="270" width="150" height="51.87" as="geometry"/>
                </mxCell>
                <mxCell id="s3QIYxIlh7an31TXtqck-11" value="" style="edgeStyle=orthogonalEdgeStyle;rounded=0;orthogonalLoop=1;jettySize=auto;html=1;" parent="7sO4SzU4SV3yVjTgbaDL-1" source="s3QIYxIlh7an31TXtqck-1" target="s3QIYxIlh7an31TXtqck-5" edge="1">
                    <mxGeometry relative="1" as="geometry"/>
                </mxCell>
                <mxCell id="s3QIYxIlh7an31TXtqck-1" value="&lt;span style=&quot;white-space: normal&quot;&gt;Select MGRA from weighted list&lt;br&gt;&lt;/span&gt;" style="rhombus;whiteSpace=wrap;html=1;fillColor=#A9C4EB;" parent="7sO4SzU4SV3yVjTgbaDL-1" vertex="1">
                    <mxGeometry x="230" y="380" width="140" height="80" as="geometry"/>
                </mxCell>
                <mxCell id="rrR5HpfxAH9Y3n2JgLJG-3" value="" style="edgeStyle=orthogonalEdgeStyle;rounded=0;orthogonalLoop=1;jettySize=auto;html=1;" parent="7sO4SzU4SV3yVjTgbaDL-1" source="s3QIYxIlh7an31TXtqck-5" target="s3QIYxIlh7an31TXtqck-10" edge="1">
                    <mxGeometry relative="1" as="geometry">
                        <Array as="points">
                            <mxPoint x="474" y="457"/>
                            <mxPoint x="474" y="457"/>
                        </Array>
                    </mxGeometry>
                </mxCell>
                <mxCell id="s3QIYxIlh7an31TXtqck-5" value="build sample from weighted MGRAs by product type" style="rounded=1;whiteSpace=wrap;html=1;fillColor=#B9E0A5;" parent="7sO4SzU4SV3yVjTgbaDL-1" vertex="1">
                    <mxGeometry x="410" y="390" width="130" height="60" as="geometry"/>
                </mxCell>
                <mxCell id="rrR5HpfxAH9Y3n2JgLJG-4" value="" style="edgeStyle=orthogonalEdgeStyle;rounded=0;orthogonalLoop=1;jettySize=auto;html=1;" parent="7sO4SzU4SV3yVjTgbaDL-1" source="s3QIYxIlh7an31TXtqck-10" target="s3QIYxIlh7an31TXtqck-16" edge="1">
                    <mxGeometry relative="1" as="geometry">
                        <Array as="points">
                            <mxPoint x="475" y="567"/>
                            <mxPoint x="475" y="567"/>
                        </Array>
                    </mxGeometry>
                </mxCell>
                <mxCell id="s3QIYxIlh7an31TXtqck-10" value="&lt;span style=&quot;white-space: normal&quot;&gt;add floorspace&lt;br&gt;&amp;nbsp;by product type&lt;br&gt;&lt;/span&gt;" style="rhombus;whiteSpace=wrap;html=1;fillColor=#A9C4EB;" parent="7sO4SzU4SV3yVjTgbaDL-1" vertex="1">
                    <mxGeometry x="404.38" y="470" width="141.25" height="73" as="geometry"/>
                </mxCell>
                <mxCell id="s3QIYxIlh7an31TXtqck-13" value="&amp;nbsp;updated floorspace by product type, employment by type, population totals, households, developed and vacant acres, and vacancy rates&amp;nbsp; to be used as inputs for the next forecast year" style="rounded=1;whiteSpace=wrap;html=1;fillColor=#B9E0A5;" parent="7sO4SzU4SV3yVjTgbaDL-1" vertex="1">
                    <mxGeometry x="600" y="909.5" width="150" height="141" as="geometry"/>
                </mxCell>
                <mxCell id="rrR5HpfxAH9Y3n2JgLJG-5" value="" style="edgeStyle=orthogonalEdgeStyle;rounded=0;orthogonalLoop=1;jettySize=auto;html=1;" parent="7sO4SzU4SV3yVjTgbaDL-1" source="s3QIYxIlh7an31TXtqck-16" edge="1">
                    <mxGeometry relative="1" as="geometry">
                        <mxPoint x="475" y="660" as="targetPoint"/>
                    </mxGeometry>
                </mxCell>
                <mxCell id="s3QIYxIlh7an31TXtqck-16" value="&lt;span style=&quot;white-space: normal&quot;&gt;add employment&lt;br&gt;&lt;/span&gt;" style="rhombus;whiteSpace=wrap;html=1;fillColor=#A9C4EB;" parent="7sO4SzU4SV3yVjTgbaDL-1" vertex="1">
                    <mxGeometry x="408.5" y="560" width="132.5" height="70" as="geometry"/>
                </mxCell>
                <mxCell id="rrR5HpfxAH9Y3n2JgLJG-20" value="" style="edgeStyle=orthogonalEdgeStyle;rounded=0;orthogonalLoop=1;jettySize=auto;html=1;" parent="7sO4SzU4SV3yVjTgbaDL-1" source="s3QIYxIlh7an31TXtqck-26" target="s3QIYxIlh7an31TXtqck-33" edge="1">
                    <mxGeometry relative="1" as="geometry"/>
                </mxCell>
                <mxCell id="s3QIYxIlh7an31TXtqck-26" value="&lt;span style=&quot;white-space: normal&quot;&gt;add population and &lt;br&gt;households&lt;br&gt;&lt;/span&gt;" style="rhombus;whiteSpace=wrap;html=1;fillColor=#A9C4EB;" parent="7sO4SzU4SV3yVjTgbaDL-1" vertex="1">
                    <mxGeometry x="404.39" y="850" width="141.24" height="70" as="geometry"/>
                </mxCell>
                <mxCell id="rrR5HpfxAH9Y3n2JgLJG-17" value="" style="edgeStyle=orthogonalEdgeStyle;rounded=0;orthogonalLoop=1;jettySize=auto;html=1;" parent="7sO4SzU4SV3yVjTgbaDL-1" source="rrR5HpfxAH9Y3n2JgLJG-13" edge="1">
                    <mxGeometry relative="1" as="geometry">
                        <mxPoint x="474" y="754" as="targetPoint"/>
                    </mxGeometry>
                </mxCell>
                <mxCell id="rrR5HpfxAH9Y3n2JgLJG-13" value="&lt;span style=&quot;white-space: normal&quot;&gt;add developed acres&lt;br&gt;&lt;/span&gt;" style="rhombus;whiteSpace=wrap;html=1;fillColor=#A9C4EB;" parent="7sO4SzU4SV3yVjTgbaDL-1" vertex="1">
                    <mxGeometry x="409" y="660" width="131.5" height="70" as="geometry"/>
                </mxCell>
                <mxCell id="rrR5HpfxAH9Y3n2JgLJG-19" value="" style="edgeStyle=orthogonalEdgeStyle;rounded=0;orthogonalLoop=1;jettySize=auto;html=1;" parent="7sO4SzU4SV3yVjTgbaDL-1" source="rrR5HpfxAH9Y3n2JgLJG-16" target="s3QIYxIlh7an31TXtqck-26" edge="1">
                    <mxGeometry relative="1" as="geometry"/>
                </mxCell>
                <mxCell id="rrR5HpfxAH9Y3n2JgLJG-16" value="&lt;span style=&quot;white-space: normal&quot;&gt;calculate new&lt;br&gt;&amp;nbsp;vacant acres&lt;br&gt;&lt;/span&gt;" style="rhombus;whiteSpace=wrap;html=1;fillColor=#A9C4EB;" parent="7sO4SzU4SV3yVjTgbaDL-1" vertex="1">
                    <mxGeometry x="414" y="757" width="121.5" height="70" as="geometry"/>
                </mxCell>
                <mxCell id="rrR5HpfxAH9Y3n2JgLJG-21" value="" style="edgeStyle=orthogonalEdgeStyle;rounded=0;orthogonalLoop=1;jettySize=auto;html=1;" parent="7sO4SzU4SV3yVjTgbaDL-1" source="s3QIYxIlh7an31TXtqck-33" target="s3QIYxIlh7an31TXtqck-13" edge="1">
                    <mxGeometry relative="1" as="geometry"/>
                </mxCell>
                <mxCell id="s3QIYxIlh7an31TXtqck-33" value="&lt;span style=&quot;white-space: normal&quot;&gt;calculate new &lt;br&gt;vacancy rate&lt;br&gt;&lt;/span&gt;" style="rhombus;whiteSpace=wrap;html=1;fillColor=#A9C4EB;" parent="7sO4SzU4SV3yVjTgbaDL-1" vertex="1">
                    <mxGeometry x="392.51" y="940" width="165" height="80" as="geometry"/>
                </mxCell>
            </root>
        </mxGraphModel>
    </diagram>
</mxfile>